<?xml version="1.0" encoding="utf-8"?>
<svg version="1.1" xmlns:xlink="http://www.w3.org/1999/xlink" width="1554px" height="129px" xmlns="http://www.w3.org/2000/svg">
  <g transform="matrix(1 0 0 1 -64 -447 )">
    <path d="M 818.537735849057 104  C 820.948639898105 104  823.266659057345 104.348467765497  825.447213727169 105  L 1524.67924528302 105  C 1541.09886792453 105  1554 91.8  1554 75  L 1554 0  L 0 0  L 0 75  C 0 91.8  12.9011320754717 105  29.3207547169811 105  L 728.552631917902 105  C 730.733240138919 104.348482919492  733.051307680361 104  735.462264150943 104  C 737.871398968998 104  740.187785173533 104.347956510181  742.366987347435 104.998404721528  L 743.408320845155 105  C 743.534185085274 105.159153305643  743.6616334705 105.31691780519  743.790643505489 105.47327048677  C 748.143586936236 107.081390731942  751.874689873175 109.92662503006  754.597344193687 113.613409514738  C 754.83576620406 113.716590466096  755.075889915247 113.816663583031  755.317669351335 113.91358179002  C 758.862047676817 122.843226957803  767.354812405512 129  777.488679245283 129  C 784.974365404655 129  791.564586910165 125.640566967812  795.926311095393 120.285614643067  C 798.417621248419 112.919642048161  804.197524288156 107.247136786191  811.630280141744 104.999220501291  C 813.810278440745 104.348247448052  816.127594063059 104  818.537735849057 104  Z " fill-rule="nonzero" fill="#f2f2f2" stroke="none" transform="matrix(1 0 0 1 64 447 )" />
  </g>
</svg>